<svg width="25" height="24" viewBox="0 0 25 24" fill="none" xmlns="http://www.w3.org/2000/svg">
<path d="M15.7326 0.5H15.601C14.6164 0.629978 13.5888 1.21407 13.0282 1.87046C12.4238 2.57478 11.9251 3.47732 12.0128 4.76329C13.328 4.86646 14.1412 4.18651 14.735 3.48544C15.3402 2.7795 15.8382 1.80466 15.7326 0.5Z" fill="white"/>
<path d="M19.5824 14.1161V14.0795C18.2956 13.4686 17.2655 12.432 17.1225 10.6603C16.9617 8.70977 17.9032 7.56758 19.0941 6.80965C18.4767 5.84456 17.4775 5.21903 16.0697 5.0062C14.9882 4.84345 14.1477 5.15085 13.3116 5.45663C13.242 5.48206 13.1726 5.50747 13.1029 5.53261C13.0277 5.56006 12.9527 5.59031 12.8778 5.62049C12.6448 5.71442 12.4133 5.80774 12.1809 5.8145C11.8258 5.82532 11.4552 5.66761 11.1273 5.52809C11.0367 5.48952 10.9494 5.45234 10.8665 5.4205C10.4628 5.26778 10.0022 5.11343 9.55129 5.04356C8.49927 4.88272 7.55449 5.24259 6.86723 5.66502C5.56501 6.45952 4.5853 8.09887 4.5 10.1152V10.943C4.70147 13.7602 5.78435 15.9618 7.18568 17.6661C7.66091 18.2429 8.31324 18.883 9.12155 19H9.49686C9.96726 18.9337 10.3575 18.7831 10.7442 18.6339C11.2624 18.434 11.7742 18.2366 12.4636 18.2477C13.0298 18.2574 13.4968 18.439 13.9599 18.6191C14.4279 18.801 14.8918 18.9813 15.4499 18.9813C16.6722 18.9813 17.383 17.9973 17.955 17.2057C17.9844 17.165 18.0134 17.1248 18.0421 17.0853C18.6855 16.1949 19.2127 15.2355 19.5824 14.1161Z" fill="white"/>
</svg>
