<svg width="24" height="24" viewBox="0 0 24 24" fill="none" xmlns="http://www.w3.org/2000/svg">
<path d="M6.4721 4.02296L15.6355 9.07146L13.4709 11.1404L6.28782 4.27189C6.15853 4.1476 6.30853 3.93404 6.46639 4.01975L6.4721 4.02296Z" fill="white"/>
<path d="M5 19.0174V4.98188C5.00009 4.95143 5.00918 4.92168 5.02611 4.89637C5.04304 4.87106 5.06707 4.85132 5.09518 4.83961C5.12329 4.8279 5.15423 4.82475 5.18412 4.83055C5.21401 4.83636 5.24153 4.85086 5.26321 4.87224L12.5713 12L5.26321 19.127C5.24153 19.1484 5.21401 19.1629 5.18412 19.1687C5.15423 19.1745 5.12329 19.1714 5.09518 19.1597C5.06707 19.148 5.04304 19.1282 5.02611 19.1029C5.00918 19.0776 5.00009 19.0478 5 19.0174Z" fill="white"/>
<path d="M6.28851 19.7281C6.15852 19.8524 6.30851 20.066 6.46708 19.9803L6.4728 19.977L15.6355 14.9285L13.4709 12.8589L6.28851 19.7281Z" fill="white"/>
<path d="M16.7759 9.69788L19.3348 11.1071C20.0308 11.4918 20.0308 12.5082 19.3348 12.8928L16.7759 14.301L14.3698 12L16.7759 9.69788Z" fill="white"/>
</svg>
